<svg width="19" height="19" viewBox="0 0 19 19" fill="none" xmlns="http://www.w3.org/2000/svg">
<path d="M9.242 17.7421C4.68942 17.7421 1 14.0526 1 9.50006C1 4.94748 4.68942 1.25806 9.242 1.25806C13.7946 1.25806 17.484 4.94748 17.484 9.50006" stroke="#1D1D1B" stroke-width="1.2" stroke-miterlimit="10" stroke-linecap="round" stroke-linejoin="round"/>
<path d="M17.4839 10.9985C17.4839 12.2393 16.4769 13.2464 15.2361 13.2464C13.9953 13.2464 12.9883 12.2393 12.9883 10.9985" stroke="#1D1D1B" stroke-width="1.2" stroke-miterlimit="10" stroke-linecap="round" stroke-linejoin="round"/>
<path d="M12.9888 9.50003C12.9888 11.5695 11.312 13.2464 9.24246 13.2464C7.17297 13.2464 5.49609 11.5695 5.49609 9.50003C5.49609 7.43054 7.17297 5.75366 9.24246 5.75366" stroke="#1D1D1B" stroke-width="1.2" stroke-miterlimit="10" stroke-linecap="round" stroke-linejoin="round"/>
<path d="M12.9883 8.75073V10.9986" stroke="#1D1D1B" stroke-width="1.2" stroke-miterlimit="10" stroke-linecap="round" stroke-linejoin="round"/>
<path d="M17.4844 9.5V10.9985" stroke="#1D1D1B" stroke-width="1.2" stroke-miterlimit="10" stroke-linecap="round" stroke-linejoin="round"/>
<path d="M12.9886 8.75075C12.9886 7.09486 11.3132 5.75366 9.24219 5.75366" stroke="#1D1D1B" stroke-width="1.2" stroke-miterlimit="10" stroke-linecap="round" stroke-linejoin="round"/>
</svg>
