<svg width="19" height="17" viewBox="0 0 19 17" fill="none" xmlns="http://www.w3.org/2000/svg">
<path d="M3.99709 14.5227H1" stroke="#1D1D1B" stroke-width="1.2" stroke-miterlimit="10" stroke-linecap="round" stroke-linejoin="round"/>
<path d="M17.4834 14.5227H14.4863" stroke="#1D1D1B" stroke-width="1.2" stroke-miterlimit="10" stroke-linecap="round" stroke-linejoin="round"/>
<path d="M1 14.5228V6.99414" stroke="#1D1D1B" stroke-width="1.2" stroke-miterlimit="10" stroke-linecap="round" stroke-linejoin="round"/>
<path d="M17.4844 14.5228V6.99414" stroke="#1D1D1B" stroke-width="1.2" stroke-miterlimit="10" stroke-linecap="round" stroke-linejoin="round"/>
<path d="M3.99609 11.5112V16.0284" stroke="#1D1D1B" stroke-width="1.2" stroke-miterlimit="10" stroke-linecap="round" stroke-linejoin="round"/>
<path d="M14.4863 11.5112V16.0284" stroke="#1D1D1B" stroke-width="1.2" stroke-miterlimit="10" stroke-linecap="round" stroke-linejoin="round"/>
<path d="M14.4859 16.0286H3.99609" stroke="#1D1D1B" stroke-width="1.2" stroke-miterlimit="10" stroke-linecap="round" stroke-linejoin="round"/>
<path d="M3.99609 11.5112H14.4859" stroke="#1D1D1B" stroke-width="1.2" stroke-miterlimit="10" stroke-linecap="round" stroke-linejoin="round"/>
<path d="M1 6.99401C1 6.16134 1.66985 5.48828 2.49855 5.48828" stroke="#1D1D1B" stroke-width="1.2" stroke-miterlimit="10" stroke-linecap="round" stroke-linejoin="round"/>
<path d="M17.4849 6.99401C17.4849 6.16134 16.815 5.48828 15.9863 5.48828" stroke="#1D1D1B" stroke-width="1.2" stroke-miterlimit="10" stroke-linecap="round" stroke-linejoin="round"/>
<path d="M2.49805 5.48828H15.985" stroke="#1D1D1B" stroke-width="1.2" stroke-miterlimit="10" stroke-linecap="round" stroke-linejoin="round"/>
<path d="M3.99609 2.47681V5.48826" stroke="#1D1D1B" stroke-width="1.2" stroke-miterlimit="10" stroke-linecap="round" stroke-linejoin="round"/>
<path d="M5.49464 0.971191L3.99609 2.47692" stroke="#1D1D1B" stroke-width="1.2" stroke-miterlimit="10" stroke-linecap="round" stroke-linejoin="round"/>
<path d="M14.4863 5.48838V0.971191" stroke="#1D1D1B" stroke-width="1.2" stroke-miterlimit="10" stroke-linecap="round" stroke-linejoin="round"/>
<path d="M5.49609 0.971191H14.4874" stroke="#1D1D1B" stroke-width="1.2" stroke-miterlimit="10" stroke-linecap="round" stroke-linejoin="round"/>
<ellipse cx="14.4865" cy="8.4998" rx="0.636882" ry="0.639934" fill="#1D1D1B"/>
</svg>
