<svg width="20" height="20" viewBox="0 0 20 20" fill="none" xmlns="http://www.w3.org/2000/svg">
<path d="M10 18.75C14.9706 18.75 19 14.7206 19 9.75C19 4.77944 14.9706 0.75 10 0.75C5.02944 0.75 1 4.77944 1 9.75C1 14.7206 5.02944 18.75 10 18.75Z" stroke="white" stroke-width="1.5" stroke-miterlimit="10" stroke-linecap="round" stroke-linejoin="round"/>
<path d="M18.4032 6.85742H1.59375" stroke="white" stroke-width="1.5" stroke-miterlimit="10" stroke-linecap="round" stroke-linejoin="round"/>
<path d="M1.59375 12.6426H18.4032" stroke="white" stroke-width="1.5" stroke-miterlimit="10" stroke-linecap="round" stroke-linejoin="round"/>
<path d="M9.99944 18.75C11.7746 18.75 13.2137 14.7206 13.2137 9.75C13.2137 4.77944 11.7746 0.75 9.99944 0.75C8.22424 0.75 6.78516 4.77944 6.78516 9.75C6.78516 14.7206 8.22424 18.75 9.99944 18.75Z" stroke="white" stroke-width="1.5" stroke-miterlimit="10" stroke-linecap="round" stroke-linejoin="round"/>
</svg>
