<svg width="120" height="48" viewBox="0 0 120 48" fill="none" xmlns="http://www.w3.org/2000/svg">
<path d="M5.45868 48.0001C4.71906 48.0001 4.08929 47.8742 3.67188 47.6539V41.9499C4.0307 41.7532 4.66048 41.6038 5.37081 41.6038C6.80611 41.6038 7.57502 42.2568 7.57502 43.1537C7.57502 44.0348 6.89399 44.4912 6.30083 44.6013V44.617C6.90863 44.7272 7.82401 45.2779 7.82401 46.222C7.82401 47.4808 6.80611 48.0001 5.45868 48.0001ZM5.36348 42.0915C5.0193 42.0915 4.763 42.1388 4.49937 42.2253V44.4361H4.92411C6.27153 44.4361 6.72556 44.0348 6.72556 43.2245C6.73288 42.4692 6.25689 42.0915 5.36348 42.0915ZM4.93875 44.8531H4.49937V47.3235C4.74835 47.4258 5.0193 47.4651 5.42207 47.4651C6.27886 47.4651 6.94525 47.1425 6.94525 46.2378C6.94525 45.2779 6.35209 44.8531 4.93875 44.8531Z" fill="white"/>
<path d="M12.4156 47.9136L10.7167 45.6163H10.702V47.9136H10.0137V43.1852C10.2846 43.0436 10.746 42.9177 11.3025 42.9177C12.4742 42.9177 13.082 43.4606 13.082 44.3732C13.082 45.2072 12.4595 45.7107 11.5076 45.7264V45.7422L13.1992 47.9058H12.4156V47.9136ZM11.2879 43.3111C11.0316 43.3111 10.8338 43.3504 10.702 43.4212V45.4826C10.7753 45.5062 10.9657 45.5219 11.1487 45.5219C11.9909 45.5219 12.401 45.1206 12.401 44.4126C12.3936 43.6573 12.0495 43.3111 11.2879 43.3111Z" fill="white"/>
<path d="M15.6074 47.9136V42.9963H16.3031V47.9136H15.6074Z" fill="white"/>
<path d="M20.9972 47.9844C19.7889 47.9844 18.8223 47.1504 18.8223 45.4196C18.8223 43.7831 19.8182 42.9255 20.9972 42.9255C21.5611 42.9255 21.9565 43.0357 22.2055 43.1852L22.0004 43.5943C21.8247 43.492 21.5244 43.3976 21.0704 43.3976C20.1184 43.3976 19.5326 44.0585 19.5326 45.4825C19.5326 46.82 20.1697 47.5359 20.9825 47.5359C21.334 47.5359 21.5244 47.4809 21.627 47.4179V45.5769H20.7482V45.1599H22.3007V47.7169C21.9931 47.8821 21.6489 47.9844 20.9972 47.9844Z" fill="white"/>
<path d="M27.5674 47.9136V45.5926H25.6195V47.9136H24.9238V42.9963H25.6195V45.1599H27.5674V42.9963H28.2631V47.9136H27.5674Z" fill="white"/>
<path d="M32.2966 43.4369V47.9136H31.6009V43.4369H30.5684V42.9963H33.3218V43.4369H32.2966Z" fill="white"/>
<path d="M35.666 47.9136V42.9963H36.3617V47.473H37.9215V47.9136H35.666Z" fill="white"/>
<path d="M41.4362 45.7342V47.9136H40.7478V45.7342L39.3418 42.9963H40.0887L41.1213 45.2229H41.1359L42.2051 42.9963H42.8642L41.4362 45.7342Z" fill="white"/>
<path d="M49.99 48.0001C49.2504 48.0001 48.811 47.8663 48.4668 47.6539L48.6938 47.0796C48.9428 47.2291 49.3089 47.3707 49.8362 47.3707C50.5831 47.3707 51.0591 46.9144 51.0591 46.2063C51.0591 45.6556 50.7369 45.3251 49.9167 45.0104C48.8256 44.5934 48.5327 43.9562 48.5327 43.3504C48.5327 42.4141 49.2357 41.6038 50.3781 41.6038C50.9786 41.6038 51.4326 41.7454 51.7182 41.9421L51.5058 42.4692C51.2788 42.3354 50.9054 42.1781 50.4733 42.1781C49.7776 42.1781 49.3895 42.6108 49.3895 43.2717C49.3895 43.909 49.8801 44.1843 50.4806 44.4125C51.7695 44.8924 51.9599 45.6162 51.9599 46.1669C51.9672 47.2448 51.1397 48.0001 49.99 48.0001Z" fill="white"/>
<path d="M58.0666 47.9136C58.0593 47.8506 57.6712 44.2315 57.6712 44.2315C57.6419 43.9247 57.6346 43.6493 57.6346 43.6493H57.6199C57.6199 43.6493 57.5687 43.9247 57.4735 44.2315C57.4735 44.2315 56.4043 47.827 56.375 47.9136H55.9137C55.8917 47.8428 54.8299 44.2237 54.8299 44.2237C54.7493 43.9326 54.6834 43.6493 54.6834 43.6493H54.6688C54.6688 43.6493 54.6614 43.9247 54.6322 44.2237C54.6322 44.2237 54.2367 47.8428 54.2221 47.9136H53.6289L54.244 42.9963H54.9763L56.0162 46.5525C56.1114 46.8829 56.148 47.1111 56.148 47.1111H56.1627C56.1627 47.1111 56.1993 46.8829 56.2945 46.5603L57.3636 42.9963H58.0959L58.7257 47.9136H58.0666Z" fill="white"/>
<path d="M61.2305 47.9136V42.9963H61.9188V47.9136H61.2305Z" fill="white"/>
<path d="M64.6426 47.9136V42.9963H65.3309V47.473H66.8907V47.9136H64.6426Z" fill="white"/>
<path d="M69.2422 47.9136V42.9963H69.9305V47.9136H69.2422Z" fill="white"/>
<path d="M75.4741 46.4502C75.6645 46.7492 75.767 46.9695 75.767 46.9695H75.7817C75.7817 46.9695 75.7597 46.7334 75.7597 46.4266V42.9963H76.3382V47.9136H75.7378L73.5335 44.326C73.3431 44.0191 73.204 43.7359 73.204 43.7359H73.1894C73.1894 43.7359 73.2113 44.0349 73.2113 44.3417V47.9136H72.6328V42.9963H73.3651L75.4741 46.4502Z" fill="white"/>
<path d="M81.0031 47.9844C79.8021 47.9844 78.8281 47.1504 78.8281 45.4196C78.8281 43.7831 79.8241 42.9255 81.0031 42.9255C81.5669 42.9255 81.9624 43.0357 82.2187 43.1852L82.0136 43.5943C81.8379 43.492 81.5376 43.3976 81.0836 43.3976C80.1316 43.3976 79.5458 44.0585 79.5458 45.4825C79.5458 46.82 80.1902 47.5359 81.0031 47.5359C81.3546 47.5359 81.545 47.4809 81.6475 47.4179V45.5769H80.7687V45.1599H82.3212V47.7169C81.999 47.8821 81.6548 47.9844 81.0031 47.9844Z" fill="white"/>
<path d="M89.8196 45.3565L89.5267 45.3329V47.9135H88.6699V41.9577C89.0287 41.7611 89.6073 41.6116 90.3029 41.6116C91.8408 41.6116 92.5365 42.3983 92.5365 43.4919C92.5365 44.5934 91.7456 45.5375 89.8196 45.3565ZM90.2663 42.1072C89.9148 42.1072 89.6585 42.1702 89.5267 42.2252V44.8294L89.8123 44.8609C91.189 44.9868 91.6943 44.3888 91.6943 43.4919C91.6943 42.5793 91.2623 42.1072 90.2663 42.1072Z" fill="white"/>
<path d="M94.6445 47.9136V42.9963H97.0465V43.4369H95.3402V45.152H96.8707V45.5848H95.3402V47.4651H97.0465V47.9057H94.6445V47.9136Z" fill="white"/>
<path d="M101.097 47.9844C99.7499 47.9844 99.2227 46.8594 99.2227 45.4511C99.2227 44.0585 99.7499 42.9177 101.097 42.9177C102.437 42.9177 102.965 44.0507 102.965 45.4511C102.965 46.8594 102.437 47.9844 101.097 47.9844ZM101.097 43.3583C100.153 43.3583 99.9257 44.4362 99.9257 45.4353C99.9257 46.4267 100.123 47.5045 101.097 47.5045C102.079 47.5045 102.262 46.4345 102.262 45.4353C102.262 44.4362 102.035 43.3583 101.097 43.3583Z" fill="white"/>
<path d="M106.361 45.8917L106.127 45.8681V47.9136H105.453V43.1931C105.739 43.0357 106.2 42.9177 106.749 42.9177C107.972 42.9177 108.521 43.5393 108.521 44.4047C108.514 45.278 107.892 46.0333 106.361 45.8917ZM106.72 43.3111C106.442 43.3111 106.237 43.3583 106.134 43.4055V45.4668L106.361 45.4904C107.452 45.5927 107.848 45.1206 107.848 44.4047C107.848 43.6887 107.511 43.3111 106.72 43.3111Z" fill="white"/>
<path d="M110.932 47.9136V42.9963H111.62V47.473H113.18V47.9136H110.932Z" fill="white"/>
<path d="M115.508 47.9136V42.9963H117.91V43.4369H116.204V45.152H117.741V45.5848H116.204V47.4651H117.91V47.9057H115.508V47.9136Z" fill="white"/>
<path d="M80.5206 33.8385C76.6687 33.8385 74.2668 33.1697 72.5312 32.0998C72.5312 32.0998 72.6484 31.7457 73.2709 30.0857C73.8933 28.4177 75.1675 28.7796 75.9657 29.0393C76.9177 29.3461 78.0674 29.5585 79.3929 29.5585C82.593 29.5585 84.5629 27.6782 84.5629 24.8223C84.5629 22.5013 83.1496 21.0694 79.532 19.6375C74.2668 17.5369 72.8535 14.2325 72.8535 11.2428C72.8535 6.37282 76.5662 2.21875 82.5418 2.21875C85.7858 2.21875 88.2024 2.9347 90.165 4.27218C90.165 4.27218 89.6597 5.16122 89.1032 6.10533C88.5466 7.04943 87.3896 6.93142 86.8037 6.71113C85.8225 6.34135 84.6361 6.05812 83.34 6.05812C80.3742 6.05812 78.6826 7.79685 78.6826 10.5269C78.6826 13.2097 80.7476 14.4607 83.5743 15.5779C89.9233 18.127 90.8607 21.5179 90.8607 24.4682C90.868 29.9126 86.5401 33.8385 80.5206 33.8385Z" fill="white"/>
<path fill-rule="evenodd" clip-rule="evenodd" d="M23.7886 34.7982C32.4077 31.1555 36.6551 20.6917 33.2645 11.4316C29.8813 2.17143 20.1418 -2.38389 11.5153 1.25093C2.89613 4.89361 -1.34388 15.3575 2.03934 24.6176C5.42988 33.8777 15.1621 38.4409 23.7886 34.7982ZM6.36724 23.1385C8.32247 28.1423 12.87 31.187 17.6666 31.187C19.1532 31.187 20.669 30.888 22.1263 30.2822C28.3362 27.6623 31.4411 20.1567 29.1344 13.4693C29.1051 13.3827 29.0392 13.2254 28.8122 13.3198C28.6936 13.3691 28.0896 13.6244 27.5021 13.8728C26.9647 14.1 26.441 14.3214 26.315 14.374C26.0645 14.4787 26.1182 14.6474 26.1493 14.7449C26.1509 14.75 26.1525 14.7549 26.1539 14.7595C27.7943 19.6768 25.5022 25.1526 20.9546 27.0723C16.4217 28.9841 11.2883 26.671 9.36234 21.8954C9.3184 21.7931 9.20855 21.5965 8.97422 21.6987C8.79964 21.7749 7.66587 22.2529 6.99907 22.5339C6.77082 22.6302 6.59729 22.7033 6.53567 22.7294C6.29401 22.8317 6.33062 23.0441 6.36724 23.1385Z" fill="white"/>
<path d="M59.3205 17.222V17.1355C62.052 16.5533 65.34 14.3661 65.34 10.1648C65.34 5.60948 61.4881 2.21069 53.6818 2.21069C48.5704 2.21069 42.1262 3.95729 40.3027 8.74077C40.3027 8.74077 43.8544 6.6952 46.6591 6.31756C46.6591 6.31756 45.319 7.10432 44.4695 8.05629V32.0996C46.6811 33.2168 49.9691 33.8383 54.0626 33.8383C61.4442 33.8383 66.4238 31.1161 66.4238 24.9952C66.4165 20.5264 62.279 17.8514 59.3205 17.222ZM50.1009 5.72749C51.2579 5.4836 52.2685 5.42853 53.6745 5.42853C57.5777 5.42853 59.5988 7.12792 59.5988 10.5188C59.5988 14.2245 57.6729 16.1048 51.939 15.9711L50.1082 15.9239V5.72749H50.1009ZM53.8649 30.353C52.2685 30.353 51.1408 30.172 50.1009 29.7708V18.7404L51.9316 18.6932C58.0463 18.5595 60.4409 20.6601 60.4409 24.9007C60.4483 28.8817 57.7168 30.353 53.8649 30.353Z" fill="white"/>
<path d="M107.695 2.21875C103.982 2.21875 100.833 2.9347 98.7606 3.95748V16.5692C97.523 16.0185 96.3074 15.2632 95.1504 14.2168C95.1504 14.2168 95.6483 17.175 98.7606 19.1419V33.39C98.7606 33.39 100.591 33.39 102.122 33.39C103.66 33.39 104.59 32.4774 104.59 30.7072C104.59 28.937 104.59 21.2425 104.59 21.2425L105.857 21.3291C115.494 21.9978 119.492 17.3559 119.492 11.77C119.499 6.32562 116.021 2.21875 107.695 2.21875ZM113.685 13.0052C113.099 16.8839 109.071 17.71 107.958 17.8044C107.717 17.828 107.468 17.8437 107.211 17.8595C106.647 17.8988 106.106 17.9145 105.593 17.9067C105.263 17.9067 104.934 17.8988 104.597 17.8831V17.8752C102.92 17.7808 101.785 17.529 101.785 17.529C102.774 17.5526 104.033 17.1356 104.597 16.9311V5.96371C105.161 5.74342 106.193 5.47592 107.607 5.47592C112.03 5.47592 113.765 7.57656 113.765 11.7306C113.765 12.1791 113.736 12.5961 113.685 13.0052Z" fill="white"/>
</svg>
