<svg width="114" height="45" viewBox="0 0 114 45" fill="none" xmlns="http://www.w3.org/2000/svg">
<path d="M5.21218 44.9995C4.51235 44.9995 3.91644 44.8815 3.52148 44.675V39.3275C3.86101 39.1431 4.45691 39.0029 5.12903 39.0029C6.48714 39.0029 7.21469 39.6151 7.21469 40.456C7.21469 41.2821 6.57029 41.7099 6.00903 41.8131V41.8279C6.58415 41.9311 7.45028 42.4474 7.45028 43.3325C7.45028 44.5127 6.48714 44.9995 5.21218 44.9995ZM5.12211 39.4602C4.79644 39.4602 4.55392 39.5045 4.30447 39.5856V41.6582H4.70636C5.98131 41.6582 6.41092 41.2821 6.41092 40.5224C6.41785 39.8143 5.96746 39.4602 5.12211 39.4602ZM4.72022 42.0491H4.30447V44.3652C4.54006 44.4611 4.79644 44.4979 5.17754 44.4979C5.98824 44.4979 6.61879 44.1955 6.61879 43.3473C6.61879 42.4474 6.05753 42.0491 4.72022 42.0491Z" fill="#737373"/>
<path d="M11.7942 44.9185L10.1867 42.7648H10.1728V44.9185H9.52148V40.4856C9.77786 40.3529 10.2144 40.2349 10.741 40.2349C11.8497 40.2349 12.4248 40.7438 12.4248 41.5994C12.4248 42.3812 11.8358 42.8533 10.935 42.868V42.8828L12.5356 44.9111H11.7942V44.9185ZM10.7271 40.6037C10.4846 40.6037 10.2975 40.6405 10.1728 40.7069V42.6394C10.2421 42.6615 10.4223 42.6763 10.5955 42.6763C11.3923 42.6763 11.7804 42.3001 11.7804 41.6363C11.7734 40.9282 11.4478 40.6037 10.7271 40.6037Z" fill="#737373"/>
<path d="M14.8164 44.919V40.3091H15.4747V44.919H14.8164Z" fill="#737373"/>
<path d="M19.9154 44.9853C18.7721 44.9853 17.8574 44.2035 17.8574 42.5808C17.8574 41.0466 18.7998 40.2427 19.9154 40.2427C20.4489 40.2427 20.8231 40.3459 21.0587 40.4861L20.8647 40.8696C20.6984 40.7737 20.4143 40.6852 19.9847 40.6852C19.0839 40.6852 18.5295 41.3048 18.5295 42.6398C18.5295 43.8937 19.1324 44.5649 19.9015 44.5649C20.2341 44.5649 20.4143 44.5133 20.5113 44.4543V42.7283H19.6798V42.3374H21.1487V44.7346C20.8577 44.8895 20.5321 44.9853 19.9154 44.9853Z" fill="#737373"/>
<path d="M26.1303 44.919V42.7431H24.2872V44.919H23.6289V40.3091H24.2872V42.3374H26.1303V40.3091H26.7886V44.919H26.1303Z" fill="#737373"/>
<path d="M30.6079 40.7221V44.919H29.9497V40.7221H28.9727V40.3091H31.578V40.7221H30.6079Z" fill="#737373"/>
<path d="M33.7949 44.919V40.3091H34.4532V44.5059H35.9291V44.919H33.7949Z" fill="#737373"/>
<path d="M39.2552 42.8759V44.919H38.6038V42.8759L37.2734 40.3091H37.9802L38.9572 42.3964H38.9711L39.9827 40.3091H40.6063L39.2552 42.8759Z" fill="#737373"/>
<path d="M47.3475 44.9995C46.6477 44.9995 46.2319 44.8741 45.9062 44.675L46.1211 44.1365C46.3566 44.2767 46.7031 44.4094 47.202 44.4094C47.9088 44.4094 48.3592 43.9816 48.3592 43.3178C48.3592 42.8015 48.0543 42.4917 47.2782 42.1967C46.2458 41.8057 45.9686 41.2083 45.9686 40.6404C45.9686 39.7626 46.6338 39.0029 47.7147 39.0029C48.2829 39.0029 48.7125 39.1357 48.9828 39.3201L48.7818 39.8143C48.567 39.6889 48.2136 39.5414 47.8048 39.5414C47.1466 39.5414 46.7793 39.947 46.7793 40.5666C46.7793 41.1641 47.2436 41.4222 47.8118 41.6361C49.0313 42.086 49.2114 42.7646 49.2114 43.2809C49.2184 44.2914 48.4354 44.9995 47.3475 44.9995Z" fill="#737373"/>
<path d="M54.99 44.919C54.9831 44.86 54.6159 41.4671 54.6159 41.4671C54.5882 41.1794 54.5812 40.9213 54.5812 40.9213H54.5674C54.5674 40.9213 54.5189 41.1794 54.4288 41.4671C54.4288 41.4671 53.4171 44.8378 53.3894 44.919H52.9529C52.9321 44.8526 51.9274 41.4597 51.9274 41.4597C51.8512 41.1868 51.7888 40.9213 51.7888 40.9213H51.7749C51.7749 40.9213 51.768 41.1794 51.7403 41.4597C51.7403 41.4597 51.3661 44.8526 51.3523 44.919H50.791L51.3731 40.3091H52.066L53.0499 43.643C53.14 43.9527 53.1746 44.1666 53.1746 44.1666H53.1885C53.1885 44.1666 53.2231 43.9527 53.3132 43.6503L54.3249 40.3091H55.0178L55.6137 44.919H54.99Z" fill="#737373"/>
<path d="M57.9844 44.919V40.3091H58.6357V44.919H57.9844Z" fill="#737373"/>
<path d="M61.2129 44.919V40.3091H61.8642V44.5059H63.3401V44.919H61.2129Z" fill="#737373"/>
<path d="M65.5645 44.919V40.3091H66.2158V44.919H65.5645Z" fill="#737373"/>
<path d="M71.4619 43.5471C71.6421 43.8274 71.7391 44.0339 71.7391 44.0339H71.753C71.753 44.0339 71.7322 43.8126 71.7322 43.5249V40.3091H72.2796V44.919H71.7114L69.6257 41.5556C69.4456 41.2679 69.3139 41.0024 69.3139 41.0024H69.3001C69.3001 41.0024 69.3208 41.2827 69.3208 41.5704V44.919H68.7734V40.3091H69.4663L71.4619 43.5471Z" fill="#737373"/>
<path d="M76.6927 44.9853C75.5563 44.9853 74.6348 44.2035 74.6348 42.5808C74.6348 41.0466 75.5771 40.2427 76.6927 40.2427C77.2262 40.2427 77.6004 40.3459 77.8429 40.4861L77.6489 40.8696C77.4826 40.7737 77.1985 40.6852 76.7689 40.6852C75.8681 40.6852 75.3138 41.3048 75.3138 42.6398C75.3138 43.8937 75.9236 44.5649 76.6927 44.5649C77.0253 44.5649 77.2055 44.5133 77.3025 44.4543V42.7283H76.471V42.3374H77.9399V44.7346C77.6351 44.8895 77.3094 44.9853 76.6927 44.9853Z" fill="#737373"/>
<path d="M85.0351 42.5216L84.758 42.4995V44.9188H83.9473V39.3353C84.2868 39.1509 84.8342 39.0107 85.4925 39.0107C86.9476 39.0107 87.6058 39.7483 87.6058 40.7736C87.6058 41.8062 86.8575 42.6913 85.0351 42.5216ZM85.4578 39.4754C85.1252 39.4754 84.8827 39.5344 84.758 39.5861V42.0275L85.0282 42.057C86.3309 42.175 86.809 41.6144 86.809 40.7736C86.809 39.918 86.4002 39.4754 85.4578 39.4754Z" fill="#737373"/>
<path d="M89.6016 44.919V40.3091H91.8743V40.7221H90.2598V42.3301H91.708V42.7357H90.2598V44.4986H91.8743V44.9116H89.6016V44.919Z" fill="#737373"/>
<path d="M95.7055 44.9849C94.4305 44.9849 93.9316 43.9302 93.9316 42.6099C93.9316 41.3044 94.4305 40.2349 95.7055 40.2349C96.9735 40.2349 97.4724 41.297 97.4724 42.6099C97.4724 43.9302 96.9735 44.9849 95.7055 44.9849ZM95.7055 40.6479C94.8116 40.6479 94.5968 41.6584 94.5968 42.5951C94.5968 43.5245 94.7839 44.535 95.7055 44.535C96.634 44.535 96.8072 43.5319 96.8072 42.5951C96.8072 41.6584 96.5924 40.6479 95.7055 40.6479Z" fill="#737373"/>
<path d="M100.687 43.0229L100.466 43.0008V44.9185H99.8281V40.493C100.098 40.3455 100.535 40.2349 101.055 40.2349C102.212 40.2349 102.731 40.8176 102.731 41.6289C102.724 42.4476 102.136 43.1557 100.687 43.0229ZM101.027 40.6037C100.764 40.6037 100.57 40.6479 100.473 40.6922V42.6246L100.687 42.6468C101.72 42.7426 102.094 42.3001 102.094 41.6289C102.094 40.9577 101.775 40.6037 101.027 40.6037Z" fill="#737373"/>
<path d="M105.012 44.919V40.3091H105.663V44.5059H107.139V44.919H105.012Z" fill="#737373"/>
<path d="M109.342 44.919V40.3091H111.615V40.7221H110V42.3301H111.455V42.7357H110V44.4986H111.615V44.9116H109.342V44.919Z" fill="#737373"/>
<path d="M76.2354 31.7231C72.5907 31.7231 70.318 31.0961 68.6758 30.093C68.6758 30.093 68.7866 29.7611 69.3756 28.2048C69.9646 26.6411 71.1703 26.9804 71.9255 27.2238C72.8263 27.5115 73.9142 27.7106 75.1683 27.7106C78.1964 27.7106 80.0603 25.9478 80.0603 23.2704C80.0603 21.0945 78.723 19.7521 75.3 18.4097C70.318 16.4403 68.9807 13.3425 68.9807 10.5397C68.9807 5.97403 72.4937 2.07959 78.1479 2.07959C81.2174 2.07959 83.504 2.75079 85.361 4.00468C85.361 4.00468 84.8829 4.83815 84.3563 5.72326C83.8297 6.60836 82.7349 6.49772 82.1806 6.29119C81.2521 5.94453 80.1296 5.679 78.9031 5.679C76.0968 5.679 74.4962 7.30906 74.4962 9.86848C74.4962 12.3836 76.4502 13.5564 79.1249 14.6038C85.1324 16.9935 86.0193 20.1725 86.0193 22.9385C86.0262 28.0425 81.9311 31.7231 76.2354 31.7231Z" fill="#737373"/>
<path d="M31.5224 10.7171C34.7306 19.3984 30.7117 29.2083 22.5561 32.6233C14.3937 36.0383 5.18488 31.7604 1.97671 23.079C-1.22453 14.3976 2.78742 4.58776 10.943 1.17274C19.1054 -2.2349 28.3211 2.03572 31.5224 10.7171Z" fill="#737373"/>
<path d="M16.7636 29.2379C12.225 29.2379 7.92208 26.3834 6.07201 21.6924C6.03736 21.6039 6.00272 21.4047 6.23138 21.3088C6.46004 21.2129 8.31704 20.4385 8.53877 20.3426C8.7605 20.2467 8.86444 20.4311 8.90601 20.527C10.7284 25.0041 15.5857 27.1726 19.8748 25.3803C24.1777 23.5806 26.3465 18.447 24.7944 13.8371C24.7667 13.7486 24.6974 13.579 24.9469 13.4757C25.1963 13.3724 27.0949 12.5758 27.3097 12.4873C27.5245 12.3988 27.5869 12.5463 27.6146 12.6275C29.7972 18.8969 26.8593 25.9335 20.9834 28.3896C19.6045 28.9576 18.1702 29.2379 16.7636 29.2379Z" fill="black"/>
<path d="M56.1765 16.1459V16.0647C58.7611 15.5189 61.8722 13.4684 61.8722 9.52973C61.8722 5.25912 58.2275 2.07275 50.8411 2.07275C46.0046 2.07275 39.907 3.71019 38.1816 8.1947C38.1816 8.1947 41.5423 6.27698 44.1961 5.92294C44.1961 5.92294 42.9281 6.66053 42.1243 7.553V30.0936C44.2169 31.1409 47.328 31.7236 51.2014 31.7236C58.1859 31.7236 62.8977 29.1716 62.8977 23.4332C62.8908 19.2437 58.9759 16.7359 56.1765 16.1459ZM47.4528 5.36975C48.5476 5.1411 49.5038 5.08947 50.8342 5.08947C54.5274 5.08947 56.4398 6.68265 56.4398 9.86164C56.4398 13.3357 54.6175 15.0985 49.192 14.9731L47.4597 14.9288V5.36975H47.4528ZM51.0143 28.4561C49.5038 28.4561 48.4367 28.2865 47.4528 27.9103V17.5694L49.185 17.5251C54.9708 17.3998 57.2366 19.3691 57.2366 23.3447C57.2436 27.0769 54.659 28.4561 51.0143 28.4561Z" fill="#737373"/>
<path d="M101.95 2.07959C98.4366 2.07959 95.4571 2.75079 93.4961 3.70965V15.5331C92.3251 15.0168 91.1749 14.3087 90.0801 13.3277C90.0801 13.3277 90.5513 16.1011 93.4961 17.945V31.3027C93.4961 31.3027 95.2284 31.3027 96.6766 31.3027C98.1317 31.3027 99.0117 30.4471 99.0117 28.7875C99.0117 27.1279 99.0117 19.9144 99.0117 19.9144L100.21 19.9955C109.329 20.6225 113.112 16.2707 113.112 11.0339C113.119 5.92978 109.828 2.07959 101.95 2.07959ZM107.618 12.1919C107.063 15.8282 103.252 16.6026 102.199 16.6911C101.97 16.7133 101.735 16.728 101.492 16.7428C100.959 16.7796 100.446 16.7944 99.961 16.787C99.6492 16.787 99.3373 16.7796 99.0186 16.7649V16.7575C97.4318 16.669 96.3578 16.433 96.3578 16.433C97.2933 16.4551 98.4851 16.0642 99.0186 15.8724V5.59049C99.5521 5.38397 100.529 5.13319 101.866 5.13319C106.052 5.13319 107.694 7.10254 107.694 10.997C107.694 11.4174 107.666 11.8083 107.618 12.1919Z" fill="#737373"/>
</svg>
