<svg width="227" height="84" viewBox="0 0 227 84" fill="none" xmlns="http://www.w3.org/2000/svg">
<path d="M8.77295 83.8205C7.35753 83.8205 6.15232 83.6007 5.35352 83.216V73.2554C6.0402 72.9119 7.24541 72.6509 8.60478 72.6509C11.3515 72.6509 12.823 73.7912 12.823 75.3574C12.823 76.8962 11.5197 77.693 10.3846 77.8854V77.9128C11.5477 78.1052 13.2995 79.0669 13.2995 80.7156C13.2995 82.9138 11.3515 83.8205 8.77295 83.8205ZM8.59076 73.5027C7.9321 73.5027 7.44161 73.5851 6.9371 73.7362V77.5968H7.74992C10.3285 77.5968 11.1974 76.8962 11.1974 75.4811C11.2114 74.1621 10.3005 73.5027 8.59076 73.5027ZM7.77795 78.325H6.9371V82.639C7.41358 82.8176 7.9321 82.8863 8.70288 82.8863C10.3425 82.8863 11.6178 82.323 11.6178 80.743C11.6178 79.0669 10.4827 78.325 7.77795 78.325Z" fill="black"/>
<path d="M22.0868 83.6695L18.8356 79.6577H18.8076V83.6695H17.4902V75.4124C18.0088 75.1651 18.8916 74.9453 19.9567 74.9453C22.199 74.9453 23.3621 75.8933 23.3621 77.487C23.3621 78.9433 22.1709 79.8226 20.3491 79.8501V79.8775L23.5863 83.6557H22.0868V83.6695ZM19.9287 75.6323C19.4382 75.6323 19.0598 75.7009 18.8076 75.8246V79.4242C18.9477 79.4654 19.3121 79.4929 19.6624 79.4929C21.274 79.4929 22.0588 78.7922 22.0588 77.5557C22.0448 76.2368 21.3861 75.6323 19.9287 75.6323Z" fill="black"/>
<path d="M28.1973 83.6695V75.0828H29.5286V83.6695H28.1973Z" fill="black"/>
<path d="M38.5098 83.793C36.1975 83.793 34.3477 82.3367 34.3477 79.3142C34.3477 76.4565 36.2536 74.959 38.5098 74.959C39.5889 74.959 40.3457 75.1513 40.8221 75.4124L40.4298 76.1268C40.0934 75.9482 39.5188 75.7833 38.65 75.7833C36.8281 75.7833 35.707 76.9374 35.707 79.4241C35.707 81.7597 36.9262 83.0099 38.4818 83.0099C39.1545 83.0099 39.5188 82.9138 39.715 82.8038V79.589H38.0334V78.8608H41.0043V83.3259C40.4157 83.6144 39.7571 83.793 38.5098 83.793Z" fill="black"/>
<path d="M51.0806 83.6695V79.6166H47.3528V83.6695H46.0215V75.0828H47.3528V78.8609H51.0806V75.0828H52.4119V83.6695H51.0806Z" fill="black"/>
<path d="M60.1354 75.8521V83.6695H58.8041V75.8521H56.8281V75.0828H62.0974V75.8521H60.1354Z" fill="black"/>
<path d="M66.5801 83.6695V75.0828H67.9114V82.9001H70.8964V83.6695H66.5801Z" fill="black"/>
<path d="M77.6233 79.8639V83.6695H76.3059V79.8639L73.6152 75.0828H75.0447L77.0207 78.9708H77.0487L79.0947 75.0828H80.356L77.6233 79.8639Z" fill="black"/>
<path d="M93.9931 83.8205C92.5776 83.8205 91.7368 83.587 91.0781 83.216L91.5126 82.2131C91.989 82.4741 92.6897 82.7214 93.6988 82.7214C95.1282 82.7214 96.0391 81.9246 96.0391 80.6881C96.0391 79.7264 95.4225 79.1493 93.8529 78.5998C91.7648 77.8716 91.2043 76.7588 91.2043 75.7009C91.2043 74.066 92.5496 72.6509 94.7358 72.6509C95.8849 72.6509 96.7538 72.8982 97.3004 73.2416L96.894 74.1621C96.4595 73.9286 95.7448 73.6538 94.918 73.6538C93.5866 73.6538 92.8439 74.4094 92.8439 75.5635C92.8439 76.6763 93.7828 77.1572 94.932 77.5556C97.3985 78.3937 97.7628 79.6577 97.7628 80.6194C97.7769 82.5016 96.1933 83.8205 93.9931 83.8205Z" fill="black"/>
<path d="M109.45 83.6695C109.436 83.5596 108.693 77.2398 108.693 77.2398C108.637 76.7039 108.623 76.2231 108.623 76.2231H108.595C108.595 76.2231 108.497 76.7039 108.314 77.2398C108.314 77.2398 106.268 83.5184 106.212 83.6695H105.329C105.287 83.5459 103.255 77.226 103.255 77.226C103.101 76.7177 102.975 76.2231 102.975 76.2231H102.947C102.947 76.2231 102.933 76.7039 102.877 77.226C102.877 77.226 102.12 83.5459 102.092 83.6695H100.957L102.134 75.0828H103.536L105.526 81.2927C105.708 81.8697 105.778 82.2682 105.778 82.2682H105.806C105.806 82.2682 105.876 81.8697 106.058 81.3064L108.104 75.0828H109.506L110.711 83.6695H109.45Z" fill="black"/>
<path d="M115.504 83.6695V75.0828H116.821V83.6695H115.504Z" fill="black"/>
<path d="M122.035 83.6695V75.0828H123.352V82.9001H126.337V83.6695H122.035Z" fill="black"/>
<path d="M130.836 83.6695V75.0828H132.153V83.6695H130.836Z" fill="black"/>
<path d="M142.762 81.1141C143.126 81.6362 143.322 82.0209 143.322 82.0209H143.35C143.35 82.0209 143.308 81.6087 143.308 81.0729V75.0828H144.415V83.6695H143.266L139.048 77.4046C138.684 76.8688 138.417 76.3742 138.417 76.3742H138.389C138.389 76.3742 138.431 76.8963 138.431 77.4321V83.6695H137.324V75.0828H138.726L142.762 81.1141Z" fill="black"/>
<path d="M153.342 83.793C151.044 83.793 149.18 82.3367 149.18 79.3142C149.18 76.4565 151.086 74.959 153.342 74.959C154.421 74.959 155.178 75.1513 155.668 75.4124L155.276 76.1268C154.939 75.9482 154.365 75.7833 153.496 75.7833C151.674 75.7833 150.553 76.9374 150.553 79.4241C150.553 81.7597 151.786 83.0099 153.342 83.0099C154.015 83.0099 154.379 82.9138 154.575 82.8038V79.589H152.893V78.8608H155.864V83.3259C155.248 83.6144 154.589 83.793 153.342 83.793Z" fill="black"/>
<path d="M170.216 79.2045L169.655 79.1633V83.6696H168.016V73.2693C168.702 72.9258 169.809 72.6648 171.141 72.6648C174.084 72.6648 175.415 74.0387 175.415 75.9484C175.415 77.8718 173.902 79.5205 170.216 79.2045ZM171.071 73.5303C170.398 73.5303 169.908 73.6402 169.655 73.7364V78.284L170.202 78.3389C172.836 78.5587 173.803 77.5146 173.803 75.9484C173.803 74.3547 172.977 73.5303 171.071 73.5303Z" fill="black"/>
<path d="M179.449 83.6695V75.0828H184.046V75.8521H180.781V78.8472H183.709V79.6028H180.781V82.8864H184.046V83.6558H179.449V83.6695Z" fill="black"/>
<path d="M191.797 83.7931C189.218 83.7931 188.209 81.8285 188.209 79.3692C188.209 76.9374 189.218 74.9453 191.797 74.9453C194.361 74.9453 195.37 76.9237 195.37 79.3692C195.37 81.8285 194.361 83.7931 191.797 83.7931ZM191.797 75.7147C189.989 75.7147 189.554 77.5969 189.554 79.3417C189.554 81.0728 189.933 82.955 191.797 82.955C193.674 82.955 194.025 81.0866 194.025 79.3417C194.025 77.5969 193.59 75.7147 191.797 75.7147Z" fill="black"/>
<path d="M201.873 80.1386L201.424 80.0974V83.6695H200.135V75.4262C200.681 75.1514 201.564 74.9453 202.615 74.9453C204.956 74.9453 206.007 76.0307 206.007 77.5419C205.993 79.067 204.801 80.3859 201.873 80.1386ZM202.559 75.6323C202.027 75.6323 201.634 75.7147 201.438 75.7971V79.3967L201.873 79.4379C203.961 79.6165 204.717 78.7922 204.717 77.5419C204.717 76.2917 204.073 75.6323 202.559 75.6323Z" fill="black"/>
<path d="M210.617 83.6695V75.0828H211.935V82.9001H214.92V83.6695H210.617Z" fill="black"/>
<path d="M219.377 83.6695V75.0828H223.974V75.8521H220.708V78.8472H223.651V79.6028H220.708V82.8864H223.974V83.6558H219.377V83.6695Z" fill="black"/>
<path d="M152.416 59.0905C145.045 59.0905 140.448 57.9227 137.127 56.0543C137.127 56.0543 137.351 55.436 138.542 52.5371C139.734 49.6245 142.172 50.2565 143.7 50.7099C145.521 51.2457 147.722 51.6166 150.258 51.6166C156.382 51.6166 160.152 48.333 160.152 43.3459C160.152 39.2929 157.447 36.7924 150.524 34.292C140.448 30.6237 137.744 24.8534 137.744 19.6327C137.744 11.1284 144.849 3.87427 156.284 3.87427C162.492 3.87427 167.117 5.1245 170.873 7.4601C170.873 7.4601 169.906 9.01258 168.841 10.6612C167.776 12.3099 165.561 12.1038 164.44 11.7191C162.562 11.0734 160.292 10.5788 157.812 10.5788C152.136 10.5788 148.899 13.6151 148.899 18.3824C148.899 23.0674 152.851 25.2519 158.26 27.2028C170.41 31.6541 172.204 37.5756 172.204 42.7276C172.218 52.2349 163.936 59.0905 152.416 59.0905Z" fill="black"/>
<path fill-rule="evenodd" clip-rule="evenodd" d="M43.85 60.7667C60.3445 54.4056 68.4727 36.133 61.9841 19.9625C55.5097 3.79188 36.871 -4.16289 20.3624 2.18444C3.86785 8.54551 -4.24629 26.8181 2.2282 42.9887C8.71671 59.1593 27.3414 67.1278 43.85 60.7667ZM10.5106 40.4058C14.2524 49.1437 22.9551 54.4606 32.1343 54.4606C34.9792 54.4606 37.8801 53.9385 40.6689 52.8806C52.5528 48.3056 58.4948 35.1988 54.0803 23.5208C54.0243 23.3697 53.8981 23.0949 53.4637 23.2598C53.2368 23.3459 52.0806 23.7919 50.956 24.2257C49.9278 24.6224 48.9259 25.0089 48.6849 25.1008C48.2053 25.2836 48.3083 25.5782 48.3678 25.7485C48.3709 25.7573 48.3738 25.7658 48.3766 25.774C51.5158 34.3607 47.1294 43.9229 38.4266 47.2752C29.7519 50.6137 19.9281 46.5745 16.2424 38.2351C16.1583 38.0565 15.9481 37.713 15.4996 37.8916C15.1656 38.0247 12.9961 38.8592 11.72 39.35C11.2831 39.5181 10.9509 39.6458 10.8329 39.6914C10.3705 39.87 10.4405 40.2409 10.5106 40.4058Z" fill="black"/>
<path d="M111.846 30.0742V29.9231C117.073 28.9064 123.365 25.0871 123.365 17.7505C123.365 9.79576 115.994 3.8606 101.055 3.8606C91.273 3.8606 78.9407 6.91061 75.4512 15.2638C75.4512 15.2638 82.248 11.6917 87.6154 11.0323C87.6154 11.0323 85.0508 12.4061 83.4252 14.0685V56.0543C87.6574 58.0052 93.9497 59.0906 101.784 59.0906C115.91 59.0906 125.439 54.337 125.439 43.6482C125.425 35.8445 117.507 31.1733 111.846 30.0742ZM94.202 10.0018C96.4162 9.57594 98.3501 9.47977 101.041 9.47977C108.51 9.47977 112.378 12.4473 112.378 18.3688C112.378 24.8398 108.693 28.1233 97.7195 27.8898L94.216 27.8073V10.0018H94.202ZM101.405 53.0043C98.3501 53.0043 96.192 52.6883 94.202 51.9876V32.7258L97.7055 32.6434C109.407 32.4098 113.99 36.0781 113.99 43.4833C114.004 50.4352 108.777 53.0043 101.405 53.0043Z" fill="black"/>
<path d="M204.424 3.87427C197.319 3.87427 191.293 5.1245 187.327 6.91054V28.9339C184.959 27.9721 182.632 26.6532 180.418 24.8259C180.418 24.8259 181.371 29.9917 187.327 33.4264V58.3074C187.327 58.3074 190.83 58.3074 193.759 58.3074C196.702 58.3074 198.482 56.7137 198.482 53.6225C198.482 50.5313 198.482 37.0947 198.482 37.0947L200.907 37.2458C219.349 38.4136 227.001 30.3077 227.001 20.5532C227.015 11.0459 220.358 3.87427 204.424 3.87427ZM215.888 22.7102C214.766 29.4834 207.059 30.926 204.929 31.0908C204.466 31.1321 203.99 31.1595 203.499 31.187C202.42 31.2557 201.383 31.2832 200.402 31.2695C199.771 31.2695 199.141 31.2557 198.496 31.2282V31.2145C195.287 31.0496 193.115 30.61 193.115 30.61C195.007 30.6512 197.417 29.923 198.496 29.5658V10.4139C199.575 10.0293 201.551 9.56213 204.256 9.56213C212.72 9.56213 216.042 13.2304 216.042 20.4845C216.042 21.2676 215.986 21.9958 215.888 22.7102Z" fill="black"/>
</svg>
