<svg width="130" height="48" viewBox="0 0 130 48" fill="none" xmlns="http://www.w3.org/2000/svg">
<path d="M5.02455 47.9998C4.21401 47.9998 3.52384 47.874 3.06641 47.6537V41.9497C3.45964 41.753 4.14981 41.6035 4.92825 41.6035C6.50119 41.6035 7.34383 42.2565 7.34383 43.1534C7.34383 44.0346 6.59749 44.4909 5.94745 44.6011V44.6168C6.61354 44.7269 7.61669 45.2777 7.61669 46.2218C7.61669 47.4806 6.50119 47.9998 5.02455 47.9998ZM4.92022 42.0913C4.54304 42.0913 4.26216 42.1385 3.97325 42.2251V44.4358H4.43871C5.91535 44.4358 6.41291 44.0346 6.41291 43.2242C6.42093 42.4689 5.8993 42.0913 4.92022 42.0913ZM4.45476 44.8528H3.97325V47.3232C4.24611 47.4255 4.54304 47.4649 4.98443 47.4649C5.92337 47.4649 6.65366 47.1423 6.65366 46.2375C6.65366 45.2777 6.00362 44.8528 4.45476 44.8528Z" fill="black"/>
<path d="M12.6479 47.9139L10.786 45.6165H10.77V47.9139H10.0156V43.1855C10.3126 43.0438 10.8181 42.918 11.4281 42.918C12.7121 42.918 13.3782 43.4608 13.3782 44.3735C13.3782 45.2074 12.696 45.711 11.6528 45.7267V45.7424L13.5066 47.906H12.6479V47.9139ZM11.412 43.3113C11.1311 43.3113 10.9144 43.3507 10.77 43.4215V45.4828C10.8502 45.5064 11.0589 45.5221 11.2595 45.5221C12.1824 45.5221 12.6318 45.1209 12.6318 44.4128C12.6238 43.6575 12.2466 43.3113 11.412 43.3113Z" fill="black"/>
<path d="M16.1484 47.9133V42.9961H16.9108V47.9133H16.1484Z" fill="black"/>
<path d="M22.0554 47.9846C20.7312 47.9846 19.6719 47.1507 19.6719 45.4198C19.6719 43.7833 20.7633 42.9258 22.0554 42.9258C22.6733 42.9258 23.1067 43.0359 23.3795 43.1854L23.1548 43.5945C22.9622 43.4922 22.6332 43.3978 22.1356 43.3978C21.0923 43.3978 20.4503 44.0587 20.4503 45.4827C20.4503 46.8202 21.1485 47.5362 22.0393 47.5362C22.4245 47.5362 22.6332 47.4811 22.7455 47.4182V45.5771H21.7825V45.1602H23.4838V47.7171C23.1468 47.8823 22.7696 47.9846 22.0554 47.9846Z" fill="black"/>
<path d="M29.2526 47.9133V45.5924H27.1179V47.9133H26.3555V42.9961H27.1179V45.1597H29.2526V42.9961H30.015V47.9133H29.2526Z" fill="black"/>
<path d="M34.4369 43.4367V47.9133H33.6745V43.4367H32.543V42.9961H35.5604V43.4367H34.4369Z" fill="black"/>
<path d="M38.1289 47.9133V42.9961H38.8913V47.4727H40.6007V47.9133H38.1289Z" fill="black"/>
<path d="M44.4515 45.734V47.9133H43.6971V45.734L42.1562 42.9961H42.9748L44.1064 45.2226H44.1224L45.2941 42.9961H46.0164L44.4515 45.734Z" fill="black"/>
<path d="M53.8255 47.9998C53.0149 47.9998 52.5334 47.8661 52.1562 47.6537L52.405 47.0793C52.6779 47.2288 53.0791 47.3704 53.657 47.3704C54.4755 47.3704 54.9972 46.9141 54.9972 46.206C54.9972 45.6553 54.6441 45.3249 53.7452 45.0102C52.5495 44.5932 52.2285 43.9559 52.2285 43.3501C52.2285 42.4139 52.9989 41.6035 54.2508 41.6035C54.9089 41.6035 55.4065 41.7451 55.7194 41.9418L55.4867 42.4689C55.2379 42.3352 54.8286 42.1778 54.3552 42.1778C53.5928 42.1778 53.1674 42.6106 53.1674 43.2714C53.1674 43.9087 53.7051 44.1841 54.3632 44.4122C55.7756 44.8922 55.9843 45.616 55.9843 46.1667C55.9923 47.2446 55.0854 47.9998 53.8255 47.9998Z" fill="black"/>
<path d="M62.6777 47.9133C62.6697 47.8504 62.2444 44.2313 62.2444 44.2313C62.2123 43.9245 62.2042 43.6491 62.2042 43.6491H62.1882C62.1882 43.6491 62.132 43.9245 62.0277 44.2313C62.0277 44.2313 60.856 47.8268 60.8239 47.9133H60.3183C60.2942 47.8425 59.1306 44.2234 59.1306 44.2234C59.0423 43.9323 58.9701 43.6491 58.9701 43.6491H58.954C58.954 43.6491 58.946 43.9245 58.9139 44.2234C58.9139 44.2234 58.4805 47.8425 58.4645 47.9133H57.8145L58.4886 42.9961H59.2911L60.4307 46.5522C60.535 46.8827 60.5751 47.1108 60.5751 47.1108H60.5912C60.5912 47.1108 60.6313 46.8827 60.7356 46.5601L61.9073 42.9961H62.7098L63.4 47.9133H62.6777Z" fill="black"/>
<path d="M66.1445 47.9133V42.9961H66.8989V47.9133H66.1445Z" fill="black"/>
<path d="M69.8828 47.9133V42.9961H70.6372V47.4727H72.3465V47.9133H69.8828Z" fill="black"/>
<path d="M74.9238 47.9133V42.9961H75.6782V47.9133H74.9238Z" fill="black"/>
<path d="M81.7524 46.45C81.9611 46.7489 82.0735 46.9692 82.0735 46.9692H82.0895C82.0895 46.9692 82.0654 46.7332 82.0654 46.4263V42.9961H82.6994V47.9133H82.0414L79.6258 44.3257C79.4171 44.0189 79.2646 43.7356 79.2646 43.7356H79.2486C79.2486 43.7356 79.2727 44.0346 79.2727 44.3414V47.9133H78.6387V42.9961H79.4412L81.7524 46.45Z" fill="black"/>
<path d="M87.8132 47.9846C86.497 47.9846 85.4297 47.1507 85.4297 45.4198C85.4297 43.7833 86.5211 42.9258 87.8132 42.9258C88.4311 42.9258 88.8645 43.0359 89.1454 43.1854L88.9206 43.5945C88.728 43.4922 88.399 43.3978 87.9014 43.3978C86.8582 43.3978 86.2162 44.0587 86.2162 45.4827C86.2162 46.8202 86.9224 47.5362 87.8132 47.5362C88.1984 47.5362 88.407 47.4811 88.5194 47.4182V45.5771H87.5564V45.1602H89.2577V47.7171C88.9046 47.8823 88.5274 47.9846 87.8132 47.9846Z" fill="black"/>
<path d="M97.4748 45.3563L97.1538 45.3327V47.9132H96.2148V41.9575C96.6081 41.7608 97.2421 41.6113 98.0045 41.6113C99.6898 41.6113 100.452 42.3981 100.452 43.4917C100.452 44.5931 99.5854 45.5372 97.4748 45.3563ZM97.9643 42.107C97.5791 42.107 97.2982 42.1699 97.1538 42.225V44.8292L97.4668 44.8606C98.9755 44.9865 99.5292 44.3886 99.5292 43.4917C99.5292 42.579 99.0558 42.107 97.9643 42.107Z" fill="black"/>
<path d="M102.764 47.9133V42.9961H105.396V43.4367H103.526V45.1518H105.203V45.5845H103.526V47.4649H105.396V47.9055H102.764V47.9133Z" fill="black"/>
<path d="M109.834 47.9847C108.357 47.9847 107.779 46.8596 107.779 45.4513C107.779 44.0588 108.357 42.918 109.834 42.918C111.302 42.918 111.88 44.0509 111.88 45.4513C111.88 46.8596 111.302 47.9847 109.834 47.9847ZM109.834 43.3586C108.798 43.3586 108.55 44.4364 108.55 45.4356C108.55 46.4269 108.766 47.5048 109.834 47.5048C110.909 47.5048 111.11 46.4348 111.11 45.4356C111.11 44.4364 110.861 43.3586 109.834 43.3586Z" fill="black"/>
<path d="M115.605 45.8919L115.348 45.8683V47.9139H114.609V43.1933C114.922 43.036 115.428 42.918 116.03 42.918C117.37 42.918 117.972 43.5395 117.972 44.4049C117.964 45.2782 117.282 46.0335 115.605 45.8919ZM115.998 43.3113C115.693 43.3113 115.468 43.3586 115.356 43.4058V45.4671L115.605 45.4907C116.8 45.5929 117.234 45.1209 117.234 44.4049C117.234 43.689 116.864 43.3113 115.998 43.3113Z" fill="black"/>
<path d="M120.611 47.9133V42.9961H121.366V47.4727H123.075V47.9133H120.611Z" fill="black"/>
<path d="M125.627 47.9133V42.9961H128.259V43.4367H126.389V45.1518H128.075V45.5845H126.389V47.4649H128.259V47.9055H125.627V47.9133Z" fill="black"/>
<path d="M87.2828 33.8385C83.0616 33.8385 80.4293 33.1697 78.5273 32.0998C78.5273 32.0998 78.6557 31.7457 79.3379 30.0857C80.02 28.4177 81.4164 28.7796 82.2912 29.0393C83.3344 29.3461 84.5944 29.5585 86.0469 29.5585C89.554 29.5585 91.7127 27.6782 91.7127 24.8223C91.7127 22.5013 90.1639 21.0694 86.1994 19.6375C80.4293 17.5369 78.8805 14.2325 78.8805 11.2428C78.8805 6.37282 82.9492 2.21875 89.4978 2.21875C93.0529 2.21875 95.7012 2.9347 97.852 4.27218C97.852 4.27218 97.2983 5.16122 96.6883 6.10533C96.0784 7.04943 94.8104 6.93142 94.1684 6.71113C93.0931 6.34135 91.793 6.05812 90.3725 6.05812C87.1223 6.05812 85.2685 7.79685 85.2685 10.5269C85.2685 13.2097 87.5316 14.4607 90.6293 15.5779C97.5872 18.127 98.6144 21.5179 98.6144 24.4682C98.6224 29.9126 93.8795 33.8385 87.2828 33.8385Z" fill="black"/>
<path fill-rule="evenodd" clip-rule="evenodd" d="M25.1108 34.7982C34.5564 31.1555 39.211 20.6917 35.4954 11.4316C31.7877 2.17143 21.1142 -2.38389 11.6606 1.25093C2.21493 4.89361 -2.43165 15.3575 1.27599 24.6176C4.99165 33.8777 15.6571 38.4409 25.1108 34.7982ZM6.01934 23.1384C8.16207 28.1422 13.1457 31.187 18.4022 31.187C20.0313 31.187 21.6925 30.888 23.2895 30.2822C30.0949 27.6623 33.4976 20.1566 30.9697 13.4692C30.9375 13.3827 30.8653 13.2253 30.6165 13.3197C30.4866 13.369 29.8246 13.6244 29.1806 13.8728C28.5917 14.1 28.018 14.3214 27.88 14.374C27.6053 14.4787 27.6643 14.6474 27.6983 14.7449C27.7001 14.7499 27.7018 14.7548 27.7034 14.7595C29.501 19.6767 26.9892 25.1525 22.0055 27.0722C17.0379 28.984 11.4123 26.671 9.30165 21.8954C9.2535 21.7931 9.13312 21.5964 8.87631 21.6987C8.68499 21.7749 7.44245 22.2528 6.71171 22.5339C6.46161 22.6301 6.27145 22.7032 6.20392 22.7293C5.93909 22.8316 5.97922 23.044 6.01934 23.1384Z" fill="black"/>
<path d="M64.0484 17.2222V17.1357C67.0418 16.5535 70.6451 14.3663 70.6451 10.165C70.6451 5.60973 66.4239 2.21094 57.869 2.21094C52.2675 2.21094 45.2053 3.95754 43.207 8.74101C43.207 8.74101 47.0992 6.69545 50.1729 6.31781C50.1729 6.31781 48.7043 7.10456 47.7734 8.05654V32.0998C50.197 33.217 53.8003 33.8385 58.2864 33.8385C66.3757 33.8385 71.8329 31.1164 71.8329 24.9954C71.8248 20.5266 67.2906 17.8517 64.0484 17.2222ZM53.9447 5.72774C55.2127 5.48384 56.3202 5.42877 57.861 5.42877C62.1384 5.42877 64.3534 7.12816 64.3534 10.5191C64.3534 14.2247 62.2428 16.1051 55.9591 15.9713L53.9528 15.9241V5.72774H53.9447ZM58.0697 30.3532C56.3202 30.3532 55.0843 30.1723 53.9447 29.771V18.7407L55.951 18.6935C62.6521 18.5597 65.2763 20.6604 65.2763 24.901C65.2843 28.882 62.2909 30.3532 58.0697 30.3532Z" fill="black"/>
<path d="M117.064 2.21875C112.995 2.21875 109.544 2.9347 107.273 3.95748V16.5692C105.917 16.0185 104.584 15.2632 103.316 14.2168C103.316 14.2168 103.862 17.175 107.273 19.1419V33.39C107.273 33.39 109.279 33.39 110.956 33.39C112.642 33.39 113.661 32.4774 113.661 30.7072C113.661 28.937 113.661 21.2425 113.661 21.2425L115.049 21.3291C125.61 21.9978 129.992 17.3559 129.992 11.77C130 6.32562 126.188 2.21875 117.064 2.21875ZM123.628 13.0052C122.986 16.8839 118.572 17.71 117.352 17.8044C117.088 17.828 116.815 17.8437 116.534 17.8595C115.916 17.8988 115.322 17.9145 114.76 17.9067C114.399 17.9067 114.038 17.8988 113.669 17.8831V17.8752C111.831 17.7808 110.587 17.529 110.587 17.529C111.671 17.5526 113.051 17.1356 113.669 16.9311V5.96371C114.287 5.74342 115.418 5.47592 116.967 5.47592C121.814 5.47592 123.716 7.57656 123.716 11.7306C123.716 12.1791 123.684 12.5961 123.628 13.0052Z" fill="black"/>
</svg>
