<svg width="20" height="20" viewBox="0 0 20 20" fill="none" xmlns="http://www.w3.org/2000/svg">
<path fill-rule="evenodd" clip-rule="evenodd" d="M13.6566 19.3043C18.7936 17.2835 21.325 11.4787 19.3043 6.34164C17.2878 1.2046 11.483 -1.32246 6.34164 0.693949C1.2046 2.71472 -1.32246 8.51953 0.693949 13.6566C2.71472 18.7936 8.51517 21.325 13.6566 19.3043ZM3.27335 12.836C4.43868 15.6119 7.14905 17.3009 10.0078 17.3009C10.8938 17.3009 11.7973 17.1351 12.6658 16.799C16.3669 15.3456 18.2175 11.1819 16.8426 7.47204C16.8252 7.42403 16.7859 7.33674 16.6506 7.38912C16.5799 7.41648 16.2198 7.5582 15.8695 7.69603C15.5493 7.82203 15.2373 7.94478 15.1623 7.97396C15.0129 8.03204 15.045 8.12562 15.0635 8.17971C15.0645 8.18253 15.0654 8.18523 15.0663 8.18782C16.0439 10.9156 14.6778 13.9534 11.9675 15.0183C9.26584 16.0789 6.20631 14.7957 5.05844 12.1464C5.03225 12.0897 4.96679 11.9806 4.82712 12.0373C4.72304 12.0796 4.04697 12.3449 3.6496 12.5008C3.51373 12.5541 3.41044 12.5946 3.37374 12.6091C3.22971 12.6658 3.25153 12.7837 3.27335 12.836Z" fill="white"/>
</svg>
