<svg width="610" height="588" viewBox="0 0 610 588" fill="none" xmlns="http://www.w3.org/2000/svg">
<path opacity="0.03" fill-rule="evenodd" clip-rule="evenodd" d="M416.525 566.658C573.205 507.34 650.413 336.946 588.78 186.153C527.279 35.3598 350.233 -38.8195 193.42 20.3702C36.7402 79.6881 -40.335 250.083 21.1654 400.876C82.799 551.669 259.713 625.976 416.525 566.658ZM99.8393 376.791C135.382 458.273 218.048 507.854 305.24 507.854C332.263 507.854 359.818 502.986 386.309 493.121C499.193 450.458 555.635 328.235 513.703 219.336C513.17 217.927 511.972 215.365 507.845 216.902C505.69 217.705 494.71 221.863 484.029 225.909C474.26 229.608 464.741 233.213 462.452 234.07C457.897 235.775 458.874 238.521 459.44 240.109C459.469 240.192 459.497 240.271 459.524 240.347C489.342 320.42 447.676 409.589 365.01 440.849C282.61 471.982 189.294 434.315 154.285 356.549C153.486 354.883 151.489 351.68 147.229 353.346C144.057 354.586 123.463 362.363 111.34 366.941C107.183 368.51 104.023 369.704 102.901 370.129C98.5081 371.795 99.1737 375.254 99.8393 376.791Z" fill="#2852E5"/>
</svg>
