<svg width="19" height="19" viewBox="0 0 19 19" fill="none" xmlns="http://www.w3.org/2000/svg">
<path d="M2.6218 3.54761C0.459399 5.71001 0.459399 9.21361 2.6218 11.376" stroke="#1D1D1B" stroke-width="1.2" stroke-miterlimit="10" stroke-linecap="round" stroke-linejoin="round"/>
<path d="M7.36523 16.1204C9.52764 18.2828 13.0312 18.2828 15.1936 16.1204" stroke="#1D1D1B" stroke-width="1.2" stroke-miterlimit="10" stroke-linecap="round" stroke-linejoin="round"/>
<path d="M2.62109 11.376L7.36549 16.1204" stroke="#1D1D1B" stroke-width="1.2" stroke-miterlimit="10" stroke-linecap="round" stroke-linejoin="round"/>
<path d="M5.81266 9.76663C5.19526 9.14923 5.19526 8.1482 5.81266 7.5293" stroke="#1D1D1B" stroke-width="1.2" stroke-miterlimit="10" stroke-linecap="round" stroke-linejoin="round"/>
<path d="M11.2119 12.9285C10.5945 13.5459 9.59351 13.5459 8.97461 12.9285" stroke="#1D1D1B" stroke-width="1.2" stroke-miterlimit="10" stroke-linecap="round" stroke-linejoin="round"/>
<path d="M5.81445 9.7666L8.97639 12.9285" stroke="#1D1D1B" stroke-width="1.2" stroke-miterlimit="10" stroke-linecap="round" stroke-linejoin="round"/>
<path d="M3.41211 2.75635L6.99813 6.34237" stroke="#1D1D1B" stroke-width="1.2" stroke-miterlimit="10" stroke-linecap="round" stroke-linejoin="round"/>
<path d="M15.9864 15.3292L12.4004 11.7432" stroke="#1D1D1B" stroke-width="1.2" stroke-miterlimit="10" stroke-linecap="round" stroke-linejoin="round"/>
<path d="M2.62109 3.54836L3.41311 2.75635" stroke="#1D1D1B" stroke-width="1.2" stroke-miterlimit="10" stroke-linecap="round" stroke-linejoin="round"/>
<path d="M5.81445 7.52938L6.9998 6.34253" stroke="#1D1D1B" stroke-width="1.2" stroke-miterlimit="10" stroke-linecap="round" stroke-linejoin="round"/>
<path d="M11.2129 12.9285L12.3997 11.7432" stroke="#1D1D1B" stroke-width="1.2" stroke-miterlimit="10" stroke-linecap="round" stroke-linejoin="round"/>
<path d="M15.1953 16.1211L15.9873 15.3291" stroke="#1D1D1B" stroke-width="1.2" stroke-miterlimit="10" stroke-linecap="round" stroke-linejoin="round"/>
<path d="M17.4849 8.75054C17.4849 4.60856 14.1342 1.25781 9.99219 1.25781" stroke="#1D1D1B" stroke-width="1.2" stroke-miterlimit="10" stroke-linecap="round" stroke-linejoin="round"/>
<path d="M14.4878 8.75052C14.4878 6.26593 12.4768 4.25488 9.99219 4.25488" stroke="#1D1D1B" stroke-width="1.2" stroke-miterlimit="10" stroke-linecap="round" stroke-linejoin="round"/>
</svg>
