<svg width="41" height="40" viewBox="0 0 41 40" fill="none" xmlns="http://www.w3.org/2000/svg">
<path d="M39.382 12.6833C43.5045 22.9573 38.3403 34.567 27.8603 38.6085C17.3715 42.6501 5.53822 37.5872 1.4157 27.3131C-2.69791 17.0391 2.45746 5.42944 12.9374 1.3879C23.4262 -2.64492 35.2684 2.40919 39.382 12.6833Z" fill="#2852E5"/>
<path d="M20.4156 34.6019C14.5835 34.6019 9.05418 31.2237 6.67683 25.6721C6.63231 25.5673 6.58779 25.3316 6.88162 25.2182C7.17545 25.1047 9.5617 24.1881 9.84662 24.0747C10.1316 23.9612 10.2651 24.1794 10.3185 24.2929C12.6603 29.5914 18.9019 32.1577 24.4134 30.0366C29.9428 27.9067 32.7297 21.8313 30.7352 16.3757C30.6996 16.2709 30.6106 16.0701 30.9311 15.9479C31.2516 15.8257 33.6913 14.883 33.9673 14.7782C34.2434 14.6735 34.3235 14.8481 34.3591 14.9441C37.1638 22.3638 33.3886 30.6913 25.8381 33.598C24.0662 34.2702 22.2231 34.6019 20.4156 34.6019Z" fill="white"/>
</svg>
