<svg width="65" height="72" viewBox="0 0 65 72" fill="none" xmlns="http://www.w3.org/2000/svg">
<path d="M15.7848 41.3193C14.3228 41.3193 13.124 42.5181 13.124 43.9801C13.124 45.445 14.3228 46.6438 15.7848 46.6438H37.586C37.6404 46.5636 37.6919 46.5093 37.7462 46.432L41.2596 42.2806C40.7818 41.6941 40.0637 41.3222 39.2368 41.3222H15.7848V41.3193Z" fill="#2852E5"/>
<path d="M13.124 55.5072C13.124 56.9721 14.3228 58.168 15.7848 58.168H33.4861C33.5147 57.9019 33.5662 57.6358 33.6206 57.344L34.7107 52.8464H15.7848C14.3228 52.8436 13.124 54.0424 13.124 55.5072Z" fill="#2852E5"/>
<path d="M49.6955 59.4727V65.9672H5.32344V5.32442H49.6983V32.2955L53.638 27.6378C54.0357 27.16 54.5163 26.7337 55.0199 26.3875V2.07712C55.0199 0.929842 54.0901 0 52.9428 0H2.07615C0.928865 0 -0.000976562 0.929842 -0.000976562 2.07712V69.2117C-0.000976562 70.359 0.928865 71.2888 2.07615 71.2888H52.9428C54.0901 71.2888 55.0199 70.359 55.0199 69.2117V53.536L51.3206 57.9019C50.817 58.4856 50.282 59.0178 49.6955 59.4727Z" fill="#294A93"/>
<path d="M37.7624 58.3569C37.5077 59.3983 38.5549 60.2852 39.5419 59.8618L44.7204 57.6359C45.719 57.2068 46.5916 56.5544 47.3755 55.8048L40.4632 49.9597C39.8538 50.8552 39.356 51.8223 39.0985 52.8809L37.7624 58.3569Z" fill="#294A93"/>
<path d="M63.2446 32.7161L60.6525 30.5245C59.4137 29.4773 57.5597 29.6318 56.5126 30.8707L42.748 47.1129L49.8263 53.0982L63.5908 36.856C64.6379 35.6172 64.4834 33.7632 63.2446 32.7161Z" fill="#294A93"/>
<path d="M32.5468 14.6273C32.5468 17.4219 30.7678 22.3824 27.6906 22.3824C24.483 22.3824 22.4277 17.4209 22.4277 14.6273C22.4277 11.8327 24.1493 9.89941 27.4872 9.89941C30.8679 9.89941 32.5468 11.8327 32.5468 14.6273Z" fill="#2852E5"/>
<path d="M37.7662 34.3992C37.6379 31.786 37.0446 29.2438 35.7745 27.3313C34.6285 25.6055 31.8954 24.2625 29.8234 24.2625H25.1184C22.9912 24.2625 20.2518 25.6879 19.1069 27.4815C17.8649 29.4262 17.2205 31.9007 17.0933 34.4753C17.0818 34.6995 17.2633 34.8924 17.4875 34.8977C24.0924 35.0603 30.7431 34.9321 37.372 34.8163C37.5973 34.8121 37.7777 34.6224 37.7662 34.3992Z" fill="#2852E5"/>
<path d="M27.4883 24.176V28.8601" stroke="#F0F0F0" stroke-width="2" stroke-miterlimit="10" stroke-linecap="round" stroke-linejoin="round"/>
</svg>
