<svg width="65" height="71" viewBox="0 0 65 71" fill="none" xmlns="http://www.w3.org/2000/svg">
<path d="M62.8064 62.3407L52.0561 51.6187C51.0207 50.5549 49.3628 50.4786 48.1973 51.3329L45.2438 48.3794C48.8706 43.9746 51.0461 38.3307 51.0461 32.2171V31.674C50.7858 31.7249 50.5029 31.7249 50.2427 31.7249C48.7659 31.7249 47.3175 31.5438 45.9425 31.2072C45.968 31.5438 45.968 31.8805 45.968 32.2171C45.968 43.4824 36.7991 52.6767 25.5056 52.6767C14.2121 52.6767 5.04602 43.4824 5.04602 32.2171C5.04602 20.9236 14.2149 11.7293 25.5056 11.7293C27.8622 11.7293 30.1169 12.1168 32.2132 12.8694C32.2642 11.1069 32.5754 9.42361 33.1468 7.84501C30.7365 7.09248 28.1734 6.67944 25.5056 6.67944C11.4481 6.67944 -0.000976562 18.1285 -0.000976562 32.2171C-0.000976562 46.2803 11.4481 57.7294 25.5113 57.7294C31.6503 57.7294 37.2687 55.5538 41.6735 51.9525L44.627 54.906C43.7727 56.0716 43.8745 57.7039 44.9128 58.7648L55.6603 69.4868C57.6293 71.4813 60.8402 71.4813 62.8092 69.4868C63.7937 68.5023 64.286 67.2066 64.286 65.9138C64.2832 64.6464 63.7909 63.3507 62.8064 62.3407Z" fill="#294A93"/>
<path d="M63.9017 13.6614C63.9017 6.11637 57.7853 0 50.2375 0C42.6924 0 36.5732 6.11637 36.5732 13.6614C36.5732 21.2064 42.6896 27.3256 50.2375 27.3256C57.7853 27.3256 63.9017 21.2093 63.9017 13.6614ZM48.7381 19.4949C48.2175 19.4949 47.7196 19.277 47.3632 18.8951L43.4733 14.7166C42.766 13.9585 42.8113 12.7703 43.5694 12.063C44.3305 11.3586 45.5158 11.3982 46.2231 12.1592L48.7381 14.8609L54.2547 8.93692C54.9591 8.17874 56.153 8.13913 56.9083 8.84073C57.6665 9.54799 57.709 10.7362 57.0017 11.4944L50.1102 18.898C49.7565 19.277 49.2586 19.4949 48.7381 19.4949Z" fill="#2852E5"/>
<path d="M30.5678 23.8066C30.5678 26.6748 28.7421 31.7657 25.5839 31.7657C22.292 31.7657 20.1826 26.6737 20.1826 23.8066C20.1826 20.9385 21.9495 18.9543 25.3752 18.9543C28.8448 18.9543 30.5678 20.9385 30.5678 23.8066Z" fill="#294A93"/>
<path d="M35.9252 44.0987C35.7936 41.4168 35.1847 38.8077 33.8812 36.8449C32.705 35.0737 29.9 33.6953 27.7735 33.6953H22.9448C20.7616 33.6953 17.9502 35.1583 16.7751 36.999C15.5005 38.9949 14.8391 41.5345 14.7085 44.1768C14.6968 44.4069 14.883 44.6049 15.1131 44.6103C21.8917 44.7772 28.7174 44.6456 35.5207 44.5268C35.7519 44.5225 35.937 44.3277 35.9252 44.0987Z" fill="#294A93"/>
<path d="M25.3779 33.6064V38.4138" stroke="#F0F0F0" stroke-width="3" stroke-miterlimit="10" stroke-linecap="round" stroke-linejoin="round"/>
</svg>
