<svg width="71" height="77" viewBox="0 0 71 77" fill="none" xmlns="http://www.w3.org/2000/svg">
<path d="M54.2149 25.1008C53.9078 25.2854 53.5541 25.377 53.1957 25.3677L34.6196 24.8573C31.9326 24.8573 29.3558 25.9339 27.4693 27.8483L18.4124 37.0309C17.5638 37.9183 17.5793 39.3735 18.4651 40.2624C19.3215 41.1172 20.9365 41.457 21.8549 40.6595L29.3759 34.271C30.6077 33.2037 31.9217 33.2378 32.685 33.3619C34.5746 33.6644 35.4418 34.9117 36.2376 36.2428C37.6277 38.5714 42.122 41.4166 48.2561 39.164C48.3275 39.1376 48.4004 39.147 48.4733 39.1299C48.5974 39.1004 48.7169 39.0725 48.8456 39.0709C48.962 39.0694 49.0706 39.0896 49.1838 39.1113C49.2909 39.1314 49.3948 39.1485 49.4988 39.1873C49.6213 39.2338 49.7268 39.3036 49.8354 39.3766C49.8959 39.4169 49.9657 39.4324 50.0231 39.4821L63.3277 50.9095C63.4921 51.0506 63.7419 51.0258 63.8738 50.8536L70.0141 42.9308C73.9794 37.8097 58.6751 22.4356 54.2149 25.1008Z" fill="#294A93"/>
<path d="M20.8566 70.663L21.0691 70.8352C21.505 71.192 22.0403 71.3441 22.5631 71.2727C23.12 71.1982 23.6211 70.8817 23.9733 70.3822L24.1331 70.1557L25.5774 68.1125L28.4366 64.0697C29.1998 62.9961 29.0059 61.4044 28.0146 60.5961C27.4654 60.1509 27 59.9709 26.547 59.9709C26.4663 59.9709 26.3872 59.9772 26.3065 59.988C25.7496 60.0625 25.2485 60.3805 24.8963 60.8785L20.4299 67.191C19.6744 68.263 19.8683 69.8547 20.8566 70.663Z" fill="#294A93"/>
<path d="M0.613278 42.0138L7.34468 50.4455C7.51378 50.4595 7.59911 50.4657 7.76821 50.4797C8.57337 49.794 9.54298 49.3549 10.601 49.2107C12.1183 49.0121 13.6107 49.4356 14.8114 50.4145C15.8353 51.2476 16.5241 52.3212 16.8887 53.4692C17.2176 53.359 17.5543 53.269 17.9033 53.221C19.4159 53.0239 20.9114 53.4428 22.1137 54.4217C22.1168 54.4217 22.3309 54.5986 22.334 54.6017C23.1408 55.2579 23.7101 56.1174 24.0731 57.0559C24.6223 56.7736 25.2056 56.5611 25.8308 56.4757C27.331 56.2492 28.8374 56.6945 30.0459 57.6765C32.6057 59.7631 33.113 63.3142 31.4639 65.8848C32.2364 66.0803 32.9718 66.4324 33.6187 66.9583C34.9079 68.0086 35.6743 69.4343 35.9132 70.919L40.2291 74.5895C40.6557 74.9557 41.1832 75.1232 41.7091 75.0581C42.2599 74.9945 42.7625 74.6919 43.1193 74.2079C43.8966 73.1561 43.7337 71.5737 42.7656 70.7515L36.8626 65.7886C36.1133 65.1572 36.0171 64.0418 36.647 63.2925C37.2769 62.5478 38.3969 62.4454 39.1432 63.0768L45.0539 68.0443C45.0989 68.0831 45.1315 68.1312 45.1749 68.17C45.1842 68.1777 45.1966 68.1793 45.2075 68.187L48.0248 70.5746C48.4545 70.9423 48.9866 71.1067 49.5079 71.0447C50.0602 70.9811 50.5613 70.6801 50.9196 70.1976C51.6953 69.1458 51.5309 67.5603 50.5628 66.7381L41.1879 58.9688C40.4354 58.3436 40.33 57.2281 40.9536 56.4757C41.5804 55.7233 42.6927 55.6147 43.4482 56.2399L52.8402 64.0232C53.1148 64.2574 53.3568 64.518 53.5802 64.7911C54.1046 65.2348 54.7298 65.4489 55.3441 65.3822C55.9305 65.3186 56.4456 65.0222 56.7962 64.5491C57.5735 63.4972 57.4106 61.9148 56.4425 61.0926L46.402 52.557C45.6558 51.9224 45.5658 50.8055 46.2003 50.0577C46.8349 49.3161 47.9503 49.2246 48.6965 49.856L58.7354 58.3917C58.7354 58.3917 58.7354 58.3932 58.737 58.3932L61.213 60.4984C61.6412 60.8646 62.1748 61.0306 62.693 60.9654C63.2437 60.9018 63.7448 60.6008 64.1016 60.1152L64.4305 59.6731C65.2047 58.6244 65.0402 57.0404 64.0722 56.2198L48.4653 42.8081C40.8341 45.129 35.0894 41.218 33.1967 38.0578C32.3 36.5577 31.7959 36.3265 31.7214 36.2986C31.7152 36.3094 31.619 36.3529 31.453 36.4956L23.9537 43.0424C22.8506 43.998 21.4777 44.4712 20.1094 44.4712C18.6014 44.4712 17.0966 43.8988 15.961 42.7631C13.7239 40.5245 13.6851 36.8431 15.8741 34.5579L24.3679 25.9447C24.537 25.7741 24.433 25.484 24.1941 25.4591L17.2967 24.7285C16.9446 24.6912 16.6079 24.5671 16.3147 24.3685C12.1757 21.5606 -3.24188 37.1844 0.613278 42.0138Z" fill="#294A93"/>
<path d="M27.0292 72.202C26.266 73.2786 26.4583 74.8672 27.4497 75.6755C27.4528 75.6755 27.642 75.8338 27.6669 75.8524C28.1012 76.2061 28.6256 76.3612 29.1593 76.2836C29.7162 76.2092 30.2158 75.8912 30.5695 75.3932L32.0154 73.35C32.7771 72.2765 32.5832 70.6847 31.5918 69.8765C30.9449 69.3506 30.4066 69.2016 29.8838 69.2683C29.3284 69.3428 28.8273 69.6593 28.4736 70.1588L27.0292 72.202Z" fill="#294A93"/>
<path d="M14.7332 65.3216C15.1692 65.6784 15.7059 65.8506 16.2303 65.7591C16.7873 65.6846 17.2883 65.3666 17.6405 64.8686L20.509 60.8164C21.2707 59.7398 21.0783 58.1512 20.087 57.346C20.0839 57.3429 19.8698 57.166 19.8667 57.1629C19.5084 56.8728 19.0786 56.7146 18.6349 56.7146C18.5512 56.7146 18.4643 56.7208 18.3805 56.7332C17.822 56.8077 17.3209 57.1257 16.9672 57.6237L15.6563 59.4745L14.651 60.8955C14.6495 60.8971 14.6479 60.8986 14.6464 60.9018L14.0987 61.6759C13.337 62.7525 13.5309 64.3442 14.5223 65.1525L14.7332 65.3216Z" fill="#294A93"/>
<path d="M8.6419 59.1331L8.85289 59.3053C9.28882 59.6591 9.83335 59.8313 10.3469 59.7397C10.9038 59.6653 11.4033 59.3472 11.7571 58.8508L12.7654 57.4266L13.206 56.8045C13.9678 55.731 13.7738 54.1393 12.7841 53.331C12.2349 52.8858 11.7679 52.7058 11.3165 52.7058C11.2358 52.7058 11.1567 52.712 11.076 52.7229C10.5191 52.7973 10.018 53.1154 9.66426 53.6134L8.21993 55.6565C7.4582 56.7332 7.65213 58.3249 8.6419 59.1331Z" fill="#294A93"/>
<path d="M45.7148 41.6276C45.7148 41.6276 52.5688 40.72 56.2843 35.405" stroke="#F0F0F0" stroke-width="4" stroke-miterlimit="10" stroke-linecap="round" stroke-linejoin="round"/>
<path d="M35.3311 16.1029V3" stroke="#2852E5" stroke-width="5" stroke-miterlimit="10" stroke-linecap="round" stroke-linejoin="round"/>
<path d="M23.3891 16.1029L17.8926 4.02856" stroke="#2852E5" stroke-width="5" stroke-miterlimit="10" stroke-linecap="round" stroke-linejoin="round"/>
<path d="M47.291 16.1029L52.786 4.02856" stroke="#2852E5" stroke-width="5" stroke-miterlimit="10" stroke-linecap="round" stroke-linejoin="round"/>
</svg>
