<svg width="67" height="72" viewBox="0 0 67 72" fill="none" xmlns="http://www.w3.org/2000/svg">
<path d="M50.7619 0.49378C44.2956 2.44069 40.9389 8.90395 42.3487 14.9476C42.425 15.2741 42.3716 15.6174 42.1808 15.8936L37.7881 22.5567L46.7475 22.1982C47.0435 22.1448 47.3426 22.2134 47.5944 22.3767C51.0442 24.615 55.5148 25.0941 59.4894 23.1793C66.2136 19.9415 68.6167 11.3406 64.0378 4.98266C61.0854 0.884383 55.6002 -0.963353 50.7619 0.49378Z" fill="#2852E5"/>
<path d="M30.6393 22.4101C30.6393 26.4993 28.0363 33.7575 23.5337 33.7575C18.8403 33.7575 15.833 26.4977 15.833 22.4101C15.833 18.321 18.3521 15.4922 23.2362 15.4922C28.1828 15.4922 30.6393 18.321 30.6393 22.4101Z" fill="#294A93"/>
<path d="M38.2711 51.3408C38.0834 47.5171 37.2152 43.7973 35.3568 40.999C33.68 38.4738 29.6809 36.5085 26.6491 36.5085H19.7647C16.6521 36.5085 12.6439 38.5943 10.9685 41.2187C9.15133 44.0643 8.20839 47.685 8.02224 51.4522C8.00545 51.7802 8.27094 52.0625 8.59899 52.0701C18.2634 52.3081 27.9949 52.1205 37.6943 51.9511C38.0239 51.945 38.2879 51.6673 38.2711 51.3408Z" fill="#294A93"/>
<path d="M23.2373 36.3818V43.2357" stroke="#F0F0F0" stroke-width="5" stroke-miterlimit="10" stroke-linecap="round" stroke-linejoin="round"/>
<path d="M52.9219 53.4512H3.00098" stroke="#294A93" stroke-width="5" stroke-miterlimit="10" stroke-linecap="round" stroke-linejoin="round"/>
<path d="M60.206 53.9566C58.5245 51.4238 55.444 49.3533 52.194 48.3326C54.6643 45.1055 55.978 40.5434 55.978 36.9089C55.978 30.2824 51.4998 26.2437 44.5712 26.2437C37.7463 26.2437 33.1628 30.3862 33.1628 36.9089C33.1628 40.1528 34.5101 44.8751 37.1756 48.2502C33.764 49.2724 30.4972 51.5032 28.7502 54.2389C26.6156 57.5865 25.3614 61.8709 25.1295 66.6222C25.07 67.7956 25.4972 68.9628 26.2967 69.8249C27.0993 70.69 28.233 71.2011 29.5024 71.2317L59.5346 71.2301C60.7156 71.2073 61.8538 70.7007 62.6594 69.8371C63.4635 68.975 63.8908 67.8093 63.8328 66.6344C63.6604 63.0809 62.8898 57.9954 60.206 53.9566Z" fill="#F0F0F0"/>
<path d="M52.1955 36.9332C52.1955 41.1429 49.5147 48.6177 44.8778 48.6177C40.0456 48.6177 36.9482 41.1429 36.9482 36.9332C36.9482 32.7235 39.5421 29.8108 44.5711 29.8108C49.6657 29.8093 52.1955 32.722 52.1955 36.9332Z" fill="#294A93"/>
<path d="M60.0565 66.845C59.8627 62.9084 58.9701 58.9551 57.0552 56.0729C55.328 53.4729 51.2099 51.4497 48.0882 51.4497H40.9993C37.7936 51.4497 33.6679 53.598 31.9422 56.2987C30.0716 59.2282 29.0997 62.9572 28.9089 66.8373C28.8922 67.1745 29.1653 67.4644 29.5025 67.4736H59.4629C59.8017 67.4675 60.0733 67.1806 60.0565 66.845Z" fill="#294A93"/>
<path d="M50.0519 13.1706C50.3531 11.8954 49.5634 10.6175 48.2881 10.3163C47.0129 10.0152 45.735 10.8049 45.4339 12.0801C45.1328 13.3554 45.9225 14.6333 47.1977 14.9344C48.4729 15.2355 49.7508 14.4458 50.0519 13.1706Z" fill="white"/>
<path d="M56.6456 13.5299C57.1471 12.3193 56.5722 10.9314 55.3616 10.4299C54.1509 9.92842 52.763 10.5033 52.2615 11.714C51.76 12.9246 52.3349 14.3125 53.5456 14.814C54.7562 15.3155 56.1441 14.7406 56.6456 13.5299Z" fill="white"/>
<path d="M63.5065 13.0029C63.7164 11.7094 62.838 10.4907 61.5446 10.2808C60.2511 10.0709 59.0324 10.9493 58.8225 12.2427C58.6126 13.5362 59.4909 14.7549 60.7844 14.9648C62.0778 15.1747 63.2966 14.2963 63.5065 13.0029Z" fill="white"/>
</svg>
