<svg width="610" height="588" viewBox="0 0 610 588" fill="none" xmlns="http://www.w3.org/2000/svg">
<path d="M588.78 186.153C650.413 336.946 573.205 507.34 416.525 566.658C259.713 625.976 82.799 551.669 21.1654 400.876C-40.335 250.083 36.7402 79.6881 193.42 20.3702C350.233 -38.8195 527.279 35.3598 588.78 186.153Z" fill="#FAFAFA"/>
<path d="M305.239 507.854C218.047 507.854 135.381 458.273 99.8383 376.791C99.1727 375.254 98.5072 371.795 102.9 370.129C107.293 368.464 142.969 355.012 147.228 353.346C151.488 351.68 153.485 354.883 154.284 356.549C189.294 434.316 282.609 471.982 365.009 440.849C447.675 409.589 489.341 320.42 459.523 240.347C458.99 238.81 457.659 235.863 462.451 234.07C467.243 232.276 503.718 218.44 507.844 216.902C511.971 215.365 513.169 217.927 513.702 219.336C555.634 328.235 499.192 450.458 386.308 493.121C359.817 502.986 332.262 507.854 305.239 507.854Z" fill="white"/>
</svg>
